<svg display="none" xmlns="http://www.w3.org/2000/svg">
    <symbol id="logo" viewBox="0 0 200 26">
        <g>
            <path d="M45.1924 5.39787H47.8724V17.436H55.4191V19.6817H45.1924V5.39787Z" fill="#07275C"/>
            <path d="M60.0379 18.9357C58.8821 18.3278 57.9188 17.4153 57.2547 16.2991C56.5914 15.1531 56.2424 13.8554 56.2424 12.5347C56.2424 11.214 56.5914 9.91624 57.2547 8.77018C57.9188 7.65533 58.8822 6.74447 60.0379 6.13876C61.2692 5.51419 62.6329 5.18845 64.0166 5.18845C65.4002 5.18845 66.7639 5.51419 67.9952 6.13876C69.1481 6.74363 70.1109 7.65037 70.7784 8.75996C71.4418 9.9097 71.7907 11.2107 71.7907 12.5347C71.7907 13.8586 71.4418 15.1596 70.7784 16.3094C70.1102 17.4184 69.1476 18.3249 67.9952 18.9306C66.7634 19.5535 65.3999 19.8784 64.0166 19.8784C62.6332 19.8784 61.2697 19.5535 60.0379 18.9306V18.9357ZM66.6139 16.9148C67.372 16.4957 67.9976 15.8766 68.4212 15.1265C68.8533 14.3332 69.0795 13.4461 69.0795 12.5449C69.0795 11.6437 68.8533 10.7566 68.4212 9.96327C67.9966 9.21394 67.3712 8.5951 66.6139 8.17492C65.8142 7.75398 64.9223 7.53383 64.0166 7.53383C63.1108 7.53383 62.2189 7.75398 61.4192 8.17492C60.6614 8.59435 60.0358 9.21337 59.6119 9.96327C59.178 10.756 58.9508 11.6433 58.9508 12.5449C58.9508 13.4464 59.178 14.3337 59.6119 15.1265C60.0348 15.8771 60.6606 16.4964 61.4192 16.9148C62.2183 17.3375 63.1104 17.5586 64.0166 17.5586C64.9227 17.5586 65.8148 17.3375 66.6139 16.9148Z" fill="#07275C"/>
            <path d="M87.4598 5.39787V19.6817H85.2523L77.2951 10.0093V19.6817H74.6357V5.39787H76.8407L84.8005 15.0703V5.39787H87.4598Z" fill="#07275C"/>
            <path d="M104.738 19.3445C104.575 19.1872 104.446 18.9981 104.361 18.7892C104.276 18.5803 104.235 18.3561 104.242 18.1309C104.242 17.6871 104.42 17.2615 104.737 16.9477C105.054 16.6339 105.485 16.4576 105.933 16.4576C106.382 16.4576 106.812 16.6339 107.129 16.9477C107.446 17.2615 107.624 17.6871 107.624 18.1309C107.626 18.4628 107.529 18.7879 107.345 19.0653C107.161 19.3426 106.898 19.5599 106.59 19.6897C106.281 19.8195 105.94 19.8559 105.611 19.7945C105.281 19.733 104.977 19.5765 104.738 19.3445Z" fill="#07275C"/>
            <path d="M120.428 16.3758H113.211L111.789 19.6817H109.031L115.525 5.39787H118.166L124.68 19.6817H121.871L120.428 16.3758ZM119.542 14.2936L116.821 8.0523L114.118 14.2936H119.542Z" fill="#07275C"/>
            <path d="M136.159 12.3776H138.697V18.0696C137.92 18.6714 137.039 19.1277 136.097 19.416C135.109 19.725 134.079 19.8801 133.043 19.8759C131.657 19.8968 130.288 19.5708 129.064 18.928C127.912 18.3224 126.949 17.4158 126.281 16.3068C125.619 15.1565 125.271 13.8557 125.271 12.5321C125.271 11.2085 125.619 9.90774 126.281 8.75743C126.951 7.6462 127.917 6.73924 129.074 6.13621C130.309 5.4916 131.688 5.16478 133.084 5.18583C134.218 5.17221 135.344 5.37609 136.399 5.78621C137.358 6.16066 138.212 6.75524 138.893 7.52091L137.192 9.14575C136.676 8.61881 136.057 8.20207 135.372 7.92128C134.687 7.64049 133.952 7.50162 133.21 7.51324C132.267 7.49612 131.335 7.714 130.5 8.14683C129.724 8.55319 129.081 9.16775 128.643 9.91985C128.188 10.7153 127.957 11.617 127.974 12.5308C127.962 13.4357 128.197 14.3272 128.653 15.1112C129.095 15.8644 129.737 16.4831 130.51 16.8995C131.334 17.3444 132.261 17.5697 133.2 17.5535C134.239 17.5761 135.264 17.322 136.169 16.8178L136.159 12.3776Z" fill="#07275C"/>
            <path d="M168.861 5.39787V19.6817H166.653L158.696 10.0093V19.6817H156.034V5.39787H158.241L166.201 15.0703V5.39787H168.861Z" fill="#07275C"/>
            <path d="M175.468 18.9357C174.321 18.3293 173.365 17.4225 172.705 16.3145C172.046 15.1631 171.7 13.8627 171.7 12.5398C171.7 11.2168 172.046 9.91644 172.705 8.76508C173.371 7.65769 174.329 6.75131 175.478 6.14387C176.691 5.50097 178.049 5.17392 179.426 5.19349C180.535 5.17961 181.637 5.38818 182.663 5.80663C183.617 6.19876 184.466 6.80691 185.139 7.58221L183.407 9.19428C182.923 8.65723 182.328 8.22972 181.663 7.94093C180.997 7.65214 180.276 7.50888 179.549 7.5209C178.622 7.50609 177.707 7.72687 176.89 8.16215C176.122 8.57785 175.486 9.19714 175.054 9.9505C174.622 10.7475 174.396 11.6379 174.396 12.5423C174.396 13.4468 174.622 14.3372 175.054 15.1342C175.485 15.8883 176.121 16.5079 176.89 16.9225C177.706 17.3594 178.622 17.5812 179.549 17.5663C180.278 17.5775 181 17.4318 181.666 17.1393C182.332 16.8469 182.926 16.4146 183.407 15.8725L185.139 17.505C184.463 18.2823 183.611 18.8907 182.653 19.2806C181.625 19.6907 180.525 19.8931 179.418 19.8758C178.042 19.899 176.682 19.5754 175.468 18.9357Z" fill="#07275C"/>
            <path d="M193.747 14.6411V19.6817H191.067V14.682L185.387 5.39787H188.255L192.482 12.3571L196.75 5.39787H199.396L193.747 14.6411Z" fill="#07275C"/>
            <path d="M42.2826 5.39531H31.4595V7.61797H42.2826V5.39531Z" fill="#07275C"/>
            <path d="M40.1913 11.2713H29.3682V13.494H40.1913V11.2713Z" fill="#07275C"/>
            <path d="M42.2826 17.4565H31.4595V19.6791H42.2826V17.4565Z" fill="#07275C"/>
            <path d="M91.3352 17.3032V19.5258H102.161V17.3032H91.3352Z" fill="#07275C"/>
            <path d="M102.158 5.24202H91.3352V7.46468H102.158V5.24202Z" fill="#07275C"/>
            <path d="M100.067 11.1155H89.2439V13.3381H100.067V11.1155Z" fill="#07275C"/>
            <path d="M102.158 17.3006H91.3352V19.5233H102.158V17.3006Z" fill="#07275C"/>
            <path d="M142.144 17.459V19.6817H152.967V17.459H142.144Z" fill="#07275C"/>
            <path d="M152.964 5.39787H142.141V7.62054H152.964V5.39787Z" fill="#07275C"/>
            <path d="M150.875 11.2713H140.052V13.494H150.875V11.2713Z" fill="#07275C"/>
            <path d="M152.964 17.4565H142.141V19.6791H152.964V17.4565Z" fill="#07275C"/>
            <path d="M12.4881 25.3521C19.3851 25.3521 24.9762 19.6768 24.9762 12.6761C24.9762 5.67526 19.3851 0 12.4881 0C5.59111 0 0 5.67526 0 12.6761C0 19.6768 5.59111 25.3521 12.4881 25.3521Z" fill="url(#paint0_linear_90_2)"/>
            <path d="M18.7943 5.52086C18.5067 5.81835 18.3456 6.21852 18.3456 6.63533C18.3456 7.05214 18.5067 7.4523 18.7943 7.74979H8.22398C7.96829 7.4364 7.82837 7.04225 7.82837 6.63533C7.82837 6.22842 7.96829 5.83426 8.22398 5.52086H18.7943Z" fill="#07275C"/>
            <path d="M18.7945 17.6056C18.5063 17.9021 18.3447 18.3019 18.3447 18.7184C18.3447 19.135 18.5063 19.5347 18.7945 19.8312H8.22409C7.96865 19.5184 7.82886 19.1248 7.82886 18.7184C7.82886 18.3121 7.96865 17.9185 8.22409 17.6056H18.7945Z" fill="#07275C"/>
            <path d="M5.78589 11.4071C6.0735 11.7046 6.23463 12.1048 6.23463 12.5216C6.23463 12.9384 6.0735 13.3386 5.78589 13.6361H16.3595C16.6152 13.3227 16.7551 12.9285 16.7551 12.5216C16.7551 12.1147 16.6152 11.7205 16.3595 11.4071H5.78589Z" fill="#07275C"/>            
        </g>
    </symbol>
</svg>